<svg xmlns="http://www.w3.org/2000/svg" xmlns:xlink="http://www.w3.org/1999/xlink" width="1749" height="869"><defs><radialGradient id="d" cx="46.062%" cy="120.162%" r="99.121%" fx="46.062%" fy="120.162%" gradientTransform="scale(.5561 1)rotate(-31.01 .644 .539)"><stop offset="0%" stop-color="#FFF" stop-opacity="0"/><stop offset="66.572%" stop-opacity="0"/><stop offset="84.431%" stop-color="#FFF" stop-opacity=".082"/><stop offset="100%" stop-color="#FFF" stop-opacity=".253"/></radialGradient><radialGradient id="h" cx="19.041%" cy="98.341%" r="117.611%" fx="19.041%" fy="98.341%" gradientTransform="matrix(.64634 -.32642 .2232 .94522 -.152 .116)"><stop offset="0%" stop-color="#FFF" stop-opacity="0"/><stop offset="77.677%" stop-color="#FFF" stop-opacity="0"/><stop offset="87.851%" stop-color="#FFF" stop-opacity=".08"/><stop offset="100%" stop-color="#FFF" stop-opacity=".25"/></radialGradient><radialGradient id="l" cx="-21.087%" cy="110.982%" r="136.388%" fx="-21.087%" fy="110.982%" gradientTransform="scale(.8901 1)rotate(-33.961 -.224 1.152)"><stop offset="0%" stop-color="#FFF" stop-opacity="0"/><stop offset="77.3%" stop-color="#FCFCFC" stop-opacity="0"/><stop offset="84.044%" stop-color="#FFF" stop-opacity="0"/><stop offset="100%" stop-color="#FFF" stop-opacity=".225"/></radialGradient><radialGradient id="p" cx="-18.843%" cy="112.071%" r="120.146%" fx="-18.843%" fy="112.071%" gradientTransform="matrix(.70304 -.67545 .71115 .66775 -.853 .245)"><stop offset="0%" stop-color="#FFF" stop-opacity="0"/><stop offset="59.557%" stop-opacity="0"/><stop offset="84.213%" stop-color="#FFF" stop-opacity=".102"/><stop offset="100%" stop-color="#FFF" stop-opacity=".301"/></radialGradient><radialGradient id="s" cx="-19.902%" cy="198.529%" r="200.357%" fx="-19.902%" fy="198.529%" gradientTransform="matrix(.38176 -.8321 .57273 .55464 -1.26 .719)"><stop offset="0%" stop-color="#FFF" stop-opacity="0"/><stop offset="84.867%" stop-color="#FFF" stop-opacity="0"/><stop offset="100%" stop-color="#FFF"/></radialGradient><radialGradient id="u" cx="3.598%" cy="104.67%" r="142.197%" fx="3.598%" fy="104.67%" gradientTransform="scale(.6838 1)rotate(-31.188 .044 1.017)"><stop offset="0%" stop-color="#FFF" stop-opacity="0"/><stop offset="85.566%" stop-color="#FFF" stop-opacity="0"/><stop offset="100%" stop-color="#FFF" stop-opacity=".02"/></radialGradient><radialGradient id="x" cx="-21.087%" cy="110.982%" r="136.388%" fx="-21.087%" fy="110.982%" gradientTransform="scale(.8901 1)rotate(-33.961 -.224 1.152)"><stop offset="0%" stop-color="#FFF" stop-opacity="0"/><stop offset="86.914%" stop-color="#FCFCFC" stop-opacity="0"/><stop offset="95.211%" stop-color="#FFF" stop-opacity="0"/><stop offset="100%" stop-color="#FFF" stop-opacity=".03"/></radialGradient><radialGradient id="A" cx="-22.498%" cy="115.634%" r="124.363%" fx="-22.498%" fy="115.634%" gradientTransform="matrix(.71294 -.66602 .70123 .67715 -.875 .223)"><stop offset="0%" stop-color="#FFF" stop-opacity="0"/><stop offset="82.37%" stop-opacity="0"/><stop offset="95.988%" stop-color="#FFF" stop-opacity=".02"/><stop offset="100%" stop-color="#FFF" stop-opacity=".03"/></radialGradient><radialGradient id="C" cx="-32.08%" cy="223.134%" r="229.704%" fx="-32.08%" fy="223.134%" gradientTransform="matrix(.38495 -.82898 .57059 .55928 -1.47 .717)"><stop offset="0%" stop-color="#FFF" stop-opacity="0"/><stop offset="69.098%" stop-opacity="0"/><stop offset="85.003%" stop-color="#FFF" stop-opacity=".02"/><stop offset="100%" stop-color="#FFF" stop-opacity=".1"/></radialGradient><path id="c" d="M1184.977 325.484C899.46 111.884 518.28 70.143 194.473 211.91c-27.819-54.408-64.765-104-109.022-145.924C70.243 51.561 53.914 37.8 36.926 25.09 25.489 16.532 13.299 8.248 0 0v860.642h1547.53c-55.588-206.795-178.218-397.256-362.553-535.158"/><path id="g" d="M0 868.743h1270.541C1261.121 545.556 1123.348 228.316 869.466 0H0z"/><path id="k" d="M0 868.743h975.982C945.487 538.148 780.492 220.771 494.274 6.648A1075 1075 0 0 0 485.297 0H0z"/><path id="o" d="M389.215 175.315C272.06 87.67 138.795 28.968 0 0v814.776h773.901C735.24 568.442 604.185 336.141 389.215 175.315"/><path id="t" d="M0 868.743h1270.541C1261.121 545.556 1123.348 228.316 869.466 0H0z"/><path id="w" d="M0 868.743h975.982C945.487 538.148 780.492 220.771 494.274 6.648A1075 1075 0 0 0 485.297 0H0z"/><path id="z" d="M389.215 175.315C272.06 87.67 138.795 28.968 0 0v814.776h773.901C735.24 568.442 604.185 336.141 389.215 175.315"/><linearGradient id="a" x1="0%" x2="100%" y1="50%" y2="50%"><stop offset="0%" stop-color="#FFF"/><stop offset="51%" stop-color="#D0D0D0"/><stop offset="62%" stop-color="#C4C4C4"/><stop offset="68%" stop-color="#BCBCBC"/><stop offset="76%" stop-color="#AEAEAE"/><stop offset="87%" stop-color="#929292"/><stop offset="94%" stop-color="#7B7B7B"/><stop offset="100%" stop-color="#707070"/></linearGradient><linearGradient id="b" x1="77.457%" x2="91.066%" y1="48.431%" y2="65.465%"><stop offset="0%" stop-color="#5D5D5D"/><stop offset="100%" stop-color="#333"/></linearGradient><linearGradient id="f" x1="50%" x2="90.628%" y1="26.624%" y2="73.376%"><stop offset="0%" stop-color="#A1A0A0"/><stop offset="52.805%" stop-color="#6E6E6E"/><stop offset="100%" stop-color="#4B4B4B"/></linearGradient><linearGradient id="j" x1="0%" x2="78.826%" y1="10.384%" y2="89.278%"><stop offset="0%" stop-color="#E8E7E7"/><stop offset="100%" stop-color="#828282"/></linearGradient><linearGradient id="n" x1="4.891%" x2="50%" y1="0%" y2="100%"><stop offset="0%" stop-color="#E6E6E6"/><stop offset="100%" stop-color="#D1D1D1"/></linearGradient><linearGradient id="r" x1="0%" x2="50%" y1="26.309%" y2="73.691%"><stop offset="0%" stop-color="#FFF"/><stop offset="100%" stop-color="#EEE"/></linearGradient></defs><g fill="none" fill-rule="evenodd"><g style="mix-blend-mode:overlay"><path fill="url(#a)" fill-rule="nonzero" d="M0 0h1749v868.829H0z"/><path fill="url(#b)" fill-rule="nonzero" d="M1184.977 325.484C899.46 111.884 518.28 70.143 194.473 211.91c-27.819-54.408-64.765-104-109.022-145.924C70.243 51.561 53.914 37.8 36.926 25.09 25.489 16.532 13.299 8.248 0 0v860.642h1547.53c-55.588-206.795-178.218-397.256-362.553-535.158" transform="translate(0 8.1)"/><g transform="translate(0 8.1)"><mask id="e" fill="#fff"><use xlink:href="#c"/></mask><path fill="url(#d)" fill-rule="nonzero" d="M1184.977 325.484C899.46 111.884 518.28 70.143 194.473 211.91c-27.819-54.408-64.765-104-109.022-145.924C70.243 51.561 53.914 37.8 36.926 25.09 25.489 16.532 13.299 8.248 0 0v860.642h1547.53c-55.588-206.795-178.218-397.256-362.553-535.158" mask="url(#e)"/></g><path fill="url(#f)" fill-rule="nonzero" d="M0 868.743h1270.541C1261.121 545.556 1123.348 228.316 869.466 0H0z"/><mask id="i" fill="#fff"><use xlink:href="#g"/></mask><path fill="url(#h)" fill-rule="nonzero" d="M0 868.743h1270.541C1261.121 545.556 1123.348 228.316 869.466 0H0z" mask="url(#i)"/><path fill="url(#j)" fill-rule="nonzero" d="M0 868.743h975.982C945.487 538.148 780.492 220.771 494.274 6.648A1075 1075 0 0 0 485.297 0H0z"/><mask id="m" fill="#fff"><use xlink:href="#k"/></mask><path fill="url(#l)" fill-rule="nonzero" d="M0 868.743h975.982C945.487 538.148 780.492 220.771 494.274 6.648A1075 1075 0 0 0 485.297 0H0z" mask="url(#m)"/><path fill="url(#n)" fill-rule="nonzero" d="M389.215 175.315C272.06 87.67 138.795 28.968 0 0v814.776h773.901C735.24 568.442 604.185 336.141 389.215 175.315" transform="translate(0 53.967)"/><g transform="translate(0 53.967)"><mask id="q" fill="#fff"><use xlink:href="#o"/></mask><path fill="url(#p)" fill-rule="nonzero" d="M389.215 175.315C272.06 87.67 138.795 28.968 0 0v814.776h773.901C735.24 568.442 604.185 336.141 389.215 175.315" mask="url(#q)"/></g><g fill-rule="nonzero"><path fill="url(#r)" d="M550.894 346.734C409.766 169.557 213.734 49.71 0 0v412.198h598.826a999 999 0 0 0-47.932-65.46z" transform="translate(0 456.548)"/><path fill="url(#s)" d="M550.894 346.734C409.766 169.557 213.734 49.71 0 0v412.198h598.826a999 999 0 0 0-47.932-65.46z" transform="translate(0 456.548)"/></g></g><mask id="v" fill="#fff"><use xlink:href="#t"/></mask><path fill="url(#u)" fill-rule="nonzero" d="M0 868.743h1270.541C1261.121 545.556 1123.348 228.316 869.466 0H0z" mask="url(#v)"/><mask id="y" fill="#fff"><use xlink:href="#w"/></mask><path fill="url(#x)" fill-rule="nonzero" d="M0 868.743h975.982C945.487 538.148 780.492 220.771 494.274 6.648A1075 1075 0 0 0 485.297 0H0z" mask="url(#y)"/><g transform="translate(0 53.967)"><mask id="B" fill="#fff"><use xlink:href="#z"/></mask><path fill="url(#A)" fill-rule="nonzero" d="M389.215 175.315C272.06 87.67 138.795 28.968 0 0v814.776h773.901C735.24 568.442 604.185 336.141 389.215 175.315" mask="url(#B)"/></g><path fill="url(#C)" fill-rule="nonzero" d="M550.894 346.734C409.766 169.557 213.734 49.71 0 0v412.198h598.826a999 999 0 0 0-47.932-65.46z" transform="translate(0 456.548)"/></g></svg>